<svg width="28" height="29" viewBox="0 0 28 29" fill="none" xmlns="http://www.w3.org/2000/svg">
<path d="M8.40001 13.313C8.40001 12.9444 8.54751 12.5909 8.81006 12.3303C9.07261 12.0697 9.4287 11.9232 9.8 11.9232H18.2C18.5713 11.9232 18.9274 12.0697 19.1899 12.3303C19.4525 12.5909 19.6 12.9444 19.6 13.313C19.6 13.6815 19.4525 14.035 19.1899 14.2956C18.9274 14.5562 18.5713 14.7027 18.2 14.7027H9.8C9.4287 14.7027 9.07261 14.5562 8.81006 14.2956C8.54751 14.035 8.40001 13.6815 8.40001 13.313ZM9.8 17.4821C9.4287 17.4821 9.07261 17.6285 8.81006 17.8891C8.54751 18.1497 8.40001 18.5032 8.40001 18.8718C8.40001 19.2403 8.54751 19.5938 8.81006 19.8544C9.07261 20.1151 9.4287 20.2615 9.8 20.2615H15.4C15.7713 20.2615 16.1274 20.1151 16.3899 19.8544C16.6525 19.5938 16.8 19.2403 16.8 18.8718C16.8 18.5032 16.6525 18.1497 16.3899 17.8891C16.1274 17.6285 15.7713 17.4821 15.4 17.4821H9.8ZM1.5753e-05 14.7027C0.000717928 11.6559 1.01009 8.69373 2.87279 6.27214C4.73549 3.85054 7.34828 2.1037 10.309 1.30044C13.2698 0.497186 16.4145 0.682041 19.259 1.82656C22.1036 2.97107 24.4904 5.01181 26.0522 7.63471C27.6139 10.2576 28.2641 13.3173 27.9025 16.3429C27.5409 19.3684 26.1877 22.1922 24.0511 24.3796C21.9145 26.5671 19.113 27.9969 16.0776 28.449C13.0422 28.9012 9.94129 28.3506 7.25201 26.882L1.80881 28.5274C1.56603 28.6009 1.3077 28.6074 1.06148 28.5463C0.815245 28.4852 0.590372 28.3589 0.410909 28.1807C0.231445 28.0026 0.104142 27.7794 0.0426168 27.5349C-0.0189083 27.2905 -0.0123413 27.0341 0.0616156 26.7931L1.71921 21.3816C0.587888 19.3348 -0.00351908 17.0373 1.5753e-05 14.7027ZM14 3.58501C12.0118 3.58485 10.0594 4.11003 8.34339 5.10662C6.62733 6.10321 5.20944 7.53528 4.23537 9.25574C3.2613 10.9762 2.76614 12.923 2.80077 14.8963C2.8354 16.8695 3.39856 18.7981 4.43241 20.4838C4.53504 20.6513 4.60082 20.8384 4.62543 21.0329C4.65004 21.2274 4.63292 21.4248 4.57521 21.6123L3.50281 25.1115L7.02241 24.047C7.21185 23.9897 7.41139 23.973 7.60783 23.9979C7.80427 24.0228 7.99316 24.0888 8.16201 24.1916C9.63811 25.0861 11.3029 25.6293 13.0258 25.7783C14.7487 25.9274 16.483 25.6783 18.0928 25.0507C19.7025 24.4231 21.144 23.434 22.3042 22.1608C23.4644 20.8877 24.3118 19.3651 24.78 17.7125C25.2482 16.0598 25.3245 14.322 25.0029 12.6352C24.6812 10.9484 23.9705 9.35843 22.9262 7.98993C21.882 6.62143 20.5327 5.51158 18.984 4.74735C17.4354 3.98312 15.7295 3.58528 14 3.58501Z" fill="white"/>
</svg>
