<svg width="20" height="23" viewBox="0 0 20 23" fill="none" xmlns="http://www.w3.org/2000/svg">
<path d="M19.1321 21.8754C18.6566 22.3474 18.0118 22.6125 17.3394 22.6125C16.667 22.6125 16.0222 22.3474 15.5467 21.8754L9.94574 15.5208L4.34477 21.8733C4.11005 22.1101 3.83041 22.2985 3.522 22.4275C3.21358 22.5565 2.88248 22.6236 2.5478 22.625C2.21312 22.6263 1.88148 22.5619 1.57202 22.4354C1.26255 22.3089 0.981381 22.1228 0.744725 21.8879C0.508069 21.653 0.320611 21.3739 0.193164 21.0667C0.0657163 20.7595 0.00080138 20.4303 0.00216416 20.0981C0.00352694 19.7658 0.07114 19.4372 0.201103 19.131C0.331067 18.8249 0.520809 18.5473 0.759385 18.3143L6.58643 11.708L0.757272 5.09747C0.518696 4.86448 0.328954 4.5869 0.198991 4.28075C0.0690274 3.9746 0.00141432 3.64593 5.15375e-05 3.31371C-0.00131125 2.9815 0.0636036 2.6523 0.191051 2.34511C0.318499 2.03792 0.505956 1.75881 0.742612 1.5239C0.979268 1.28898 1.26044 1.1029 1.56991 0.97639C1.87937 0.849879 2.21101 0.785442 2.54569 0.786795C2.88037 0.788147 3.21146 0.855263 3.51988 0.984271C3.8283 1.11328 4.10794 1.30163 4.34266 1.53845L9.94574 7.89519L15.5467 1.53845C15.7814 1.30163 16.0611 1.11328 16.3695 0.984271C16.6779 0.855263 17.009 0.788147 17.3437 0.786795C17.6784 0.785442 18.01 0.849879 18.3195 0.97639C18.6289 1.1029 18.9101 1.28898 19.1468 1.5239C19.3834 1.75881 19.5709 2.03792 19.6983 2.34511C19.8258 2.6523 19.8907 2.9815 19.8893 3.31371C19.888 3.64593 19.8203 3.9746 19.6904 4.28075C19.5604 4.5869 19.3707 4.86448 19.1321 5.09747L13.3051 11.708L19.1321 18.3143C19.3678 18.548 19.5548 18.8256 19.6824 19.1311C19.81 19.4366 19.8757 19.7641 19.8757 20.0949C19.8757 20.4256 19.81 20.7531 19.6824 21.0586C19.5548 21.3641 19.3678 21.6417 19.1321 21.8754Z" fill="white"/>
</svg>
