<svg width="9" height="35" viewBox="0 0 9 35" fill="none" xmlns="http://www.w3.org/2000/svg">
<path d="M-3.05176e-05 17.3088C-3.05176e-05 18.4277 0.447738 19.5007 1.24477 20.2919C2.0418 21.0831 3.12281 21.5275 4.24998 21.5275C5.37716 21.5275 6.45817 21.0831 7.2552 20.2919C8.05223 19.5007 8.5 18.4277 8.5 17.3088C8.5 16.1899 8.05223 15.1168 7.2552 14.3257C6.45817 13.5345 5.37716 13.09 4.24998 13.09C3.12281 13.09 2.0418 13.5345 1.24477 14.3257C0.447738 15.1168 -3.05176e-05 16.1899 -3.05176e-05 17.3088ZM-3.05176e-05 4.65253C-3.05176e-05 5.77141 0.447738 6.84446 1.24477 7.63563C2.0418 8.4268 3.12281 8.87128 4.24998 8.87128C5.37716 8.87128 6.45817 8.4268 7.2552 7.63563C8.05223 6.84446 8.5 5.77141 8.5 4.65253C8.5 3.53364 8.05223 2.46059 7.2552 1.66942C6.45817 0.878251 5.37716 0.433777 4.24998 0.433777C3.12281 0.433777 2.0418 0.878251 1.24477 1.66942C0.447738 2.46059 -3.05176e-05 3.53364 -3.05176e-05 4.65253ZM-3.05176e-05 29.965C-3.05176e-05 31.0839 0.447738 32.157 1.24477 32.9481C2.0418 33.7393 3.12281 34.1838 4.24998 34.1838C5.37716 34.1838 6.45817 33.7393 7.2552 32.9481C8.05223 32.157 8.5 31.0839 8.5 29.965C8.5 28.8461 8.05223 27.7731 7.2552 26.9819C6.45817 26.1908 5.37716 25.7463 4.24998 25.7463C3.12281 25.7463 2.0418 26.1908 1.24477 26.9819C0.447738 27.7731 -3.05176e-05 28.8461 -3.05176e-05 29.965Z" fill="white"/>
</svg>
