<svg width="34" height="35" viewBox="0 0 34 35" fill="none" xmlns="http://www.w3.org/2000/svg">
<path fill-rule="evenodd" clip-rule="evenodd" d="M24.3526 22.2068L33.4982 31.2851C33.8197 31.6044 34.0002 32.0374 34 32.4888C33.9998 32.9403 33.819 33.3731 33.4974 33.6922C33.1757 34.0113 32.7395 34.1905 32.2847 34.1903C31.8299 34.1902 31.3939 34.0107 31.0724 33.6914L21.9268 24.613C19.1929 26.715 15.7549 27.7042 12.3123 27.3793C8.86971 27.0544 5.6811 25.4399 3.39513 22.8642C1.10916 20.2885 -0.102446 16.9451 0.00679344 13.5141C0.116033 10.0831 1.53791 6.82232 3.98317 4.39504C6.42843 1.96776 9.71339 0.556342 13.1698 0.447906C16.6262 0.33947 19.9944 1.54217 22.5892 3.81133C25.1839 6.08048 26.8104 9.24566 27.1377 12.6629C27.465 16.0802 26.4685 19.4929 24.3509 22.2068H24.3526ZM13.6006 24.0646C16.3057 24.0646 18.9 22.9979 20.8128 21.0992C22.7256 19.2005 23.8002 16.6253 23.8002 13.9401C23.8002 11.2549 22.7256 8.6797 20.8128 6.78098C18.9 4.88226 16.3057 3.81557 13.6006 3.81557C10.8955 3.81557 8.30126 4.88226 6.38848 6.78098C4.4757 8.6797 3.40111 11.2549 3.40111 13.9401C3.40111 16.6253 4.4757 19.2005 6.38848 21.0992C8.30126 22.9979 10.8955 24.0646 13.6006 24.0646Z" fill="white"/>
</svg>
